<?xml version="1.0" standalone="no"?><!DOCTYPE svg PUBLIC "-//W3C//DTD SVG 1.1//EN" "http://www.w3.org/Graphics/SVG/1.1/DTD/svg11.dtd">
<svg height="1024" legacy-metrics="false" node-id="1" sillyvg="true" template-height="1024" template-width="1631"
     version="1.1" viewBox="0 0 1631 1024" width="1631" xmlns="http://www.w3.org/2000/svg"><defs node-id="29"></defs><g node-id="43"><g node-id="44"><g node-id="46"><path d="M 994.87 899.73 L 1011.08 899.46 L 1027.11 898.71 L 1042.95 897.47 L 1058.61 895.76 L 1074.10 893.57 L 1089.44 890.90 L 1104.78 887.75 L 1119.91 884.16 L 1134.83 880.13 L 1149.56 875.67 L 1164.10 870.78 L 1178.45 865.45 L 1192.68 859.68 L 1206.68 853.52 L 1220.44 846.96 L 1233.98 840.01 L 1247.31 832.67 L 1260.42 824.93 L 1275.85 815.14 L 1290.90 804.84 L 1305.58 794.03 L 1319.89 782.72 L 1333.85 770.88 L 1347.38 758.58 L 1360.48 745.83 L 1373.16 732.63 L 1385.42 718.97 L 1397.26 704.85 L 1408.60 690.35 L 1419.46 675.47 L 1429.84 660.18 L 1439.74 644.49 L 1449.17 628.38 L 1458.02 612.01 L 1466.34 595.30 L 1474.12 578.24 L 1481.37 560.82 L 1488.08 543.03 L 1493.19 528.11 L 1497.89 512.98 L 1502.17 497.65 L 1506.04 482.10 L 1509.49 466.34 L 1512.52 450.34 L 1515.08 434.38 L 1517.18 418.25 L 1518.83 401.94 L 1520.02 385.45 L 1520.74 368.76 L 1521.00 351.86 L 1520.72 336.39 L 1519.95 321.99 L 1518.73 308.58 L 1517.07 296.12 L 1515.02 284.54 L 1512.32 272.55 L 1509.23 261.41 L 1505.76 251.09 L 1501.95 241.51 L 1497.79 232.64 L 1492.97 223.79 L 1487.82 215.57 L 1482.33 207.94 L 1476.50 200.88 L 1470.34 194.35 L 1463.72 188.18 L 1456.75 182.46 L 1449.44 177.16 L 1441.77 172.29 L 1433.72 167.84 L 1425.51 163.86 L 1416.94 160.21 L 1408.01 156.89 L 1398.68 153.91 L 1388.96 151.27 L 1376.85 148.54 L 1364.19 146.21 L 1350.95 144.30 L 1337.10 142.84 L 1323.40 141.82 L 1309.19 141.11 L 1294.46 140.74 L 1279.20 140.71 L 1258.99 141.09 L 1238.02 141.87 L 1216.28 143.06 L 1183.49 145.33 L 1149.38 148.06 L 1079.56 153.90 L 1043.95 156.55 L 1007.84 158.73 L 983.70 159.82 L 959.52 160.49 L 935.28 160.75 L 901.18 160.48 L 864.23 159.75 L 786.60 157.55 L 746.20 156.37 L 704.54 155.33 L 662.59 154.60 L 620.18 154.30 L 591.85 154.42 L 563.67 154.88 L 535.64 155.66 L 507.62 156.85 L 480.10 158.49 L 453.06 160.59 L 432.74 162.54 L 412.89 164.81 L 393.50 167.40 L 374.57 170.30 L 355.55 173.65 L 337.17 177.39 L 319.44 181.50 L 302.31 185.97 L 288.52 190.00 L 275.25 194.30 L 262.49 198.87 L 250.21 203.71 L 238.41 208.81 L 226.59 214.44 L 215.36 220.38 L 204.70 226.62 L 194.58 233.17 L 184.99 240.01 L 177.16 246.16 L 169.76 252.57 L 162.78 259.23 L 156.19 266.14 L 150.00 273.32 L 144.19 280.77 L 138.80 288.50 L 133.83 296.55 L 129.28 304.94 L 125.15 313.68 L 121.44 322.78 L 118.15 332.27 L 115.46 341.69 L 113.21 351.53 L 111.42 361.83 L 110.11 372.61 L 109.30 383.90 L 109.00 395.73 L 109.31 407.36 L 110.18 418.86 L 111.60 430.23 L 113.56 441.49 L 116.08 452.64 L 119.16 463.71 L 122.72 474.58 L 126.77 485.37 L 131.31 496.08 L 136.35 506.72 L 141.91 517.30 L 147.99 527.83 L 155.69 540.00 L 164.03 552.08 L 173.02 564.07 L 182.68 575.98 L 193.05 587.81 L 203.65 599.13 L 214.81 610.34 L 226.56 621.45 L 238.90 632.46 L 251.86 643.38 L 264.91 653.81 L 278.44 664.12 L 292.46 674.30 L 306.96 684.34 L 321.98 694.26 L 340.85 706.12 L 360.29 717.73 L 380.31 729.08 L 400.94 740.18 L 421.70 750.81 L 442.84 761.13 L 464.37 771.15 L 486.29 780.87 L 508.34 790.18 L 530.56 799.15 L 552.97 807.77 L 575.56 816.04 L 598.30 823.97 L 621.00 831.51 L 643.67 838.67 L 666.31 845.44 L 689.14 851.90 L 711.70 857.94 L 734.01 863.57 L 756.08 868.78 L 778.38 873.70 L 800.20 878.17 L 821.53 882.20 L 842.40 885.79 L 863.57 889.08 L 884.01 891.90 L 903.76 894.27 L 922.81 896.20 L 942.23 897.77 L 960.69 898.87 L 978.22 899.52 L 994.87 899.73 Z" fill="#eff0f9" fill-rule="evenodd" group-id="1,2,4" id="椭圆形备份-5" node-id="8" stroke-linecap="butt" stroke-width="1" target-height="759.01855" target-width="1412" target-x="109" target-y="140.7102"></path><g node-id="47"><path d="M 754.71 902.64 L 969.64 902.64 L 973.00 902.41 L 976.16 901.77 L 979.16 900.72 L 982.00 899.29 L 984.59 897.55 L 986.94 895.47 L 989.02 893.12 L 990.76 890.54 L 992.19 887.70 L 993.24 884.70 L 993.88 881.53 L 994.11 878.17 L 993.86 874.65 L 993.10 871.22 L 991.87 867.94 L 990.17 864.84 L 879.16 693.82 L 876.74 690.68 L 873.98 688.07 L 870.87 685.94 L 867.47 684.32 L 863.93 683.25 L 860.20 682.71 L 856.43 682.76 L 852.69 683.40 L 848.93 684.67 L 754.25 725.56 L 754.25 725.56 L 730.54 874.32 L 730.24 877.67 L 730.38 880.90 L 730.94 884.03 L 731.90 887.06 L 733.22 889.89 L 734.89 892.53 L 736.89 894.95 L 739.17 897.08 L 741.75 898.94 L 744.55 900.45 L 747.57 901.58 L 750.85 902.34 L 754.71 902.64 Z" fill="#3681fd" fill-rule="evenodd" group-id="1,2,4,5" id="路径-8备份" node-id="10" stroke="#555555" stroke-linecap="butt" stroke-width="6.1185126" target-height="219.92859" target-width="263.87256" target-x="730.23926" target-y="682.7144"></path><path d="M 580.28 299.14 L 592.23 295.06 L 604.65 291.27 L 617.56 287.80 L 630.97 284.64 L 644.91 281.81 L 662.17 278.88 L 680.02 276.47 L 698.48 274.60 L 717.57 273.28 L 736.53 272.56 L 755.90 272.40 L 775.69 272.82 L 795.93 273.82 L 816.00 275.38 L 836.31 277.54 L 856.85 280.29 L 877.63 283.66 L 894.18 286.78 L 910.48 290.22 L 926.53 294.00 L 942.34 298.10 L 958.12 302.57 L 973.55 307.33 L 988.63 312.36 L 1003.38 317.67 L 1018.09 323.36 L 1032.34 329.28 L 1046.17 335.42 L 1059.56 341.79 L 1072.90 348.55 L 1085.69 355.49 L 1097.96 362.58 L 1109.72 369.85 L 1121.37 377.54 L 1132.40 385.34 L 1142.82 393.24 L 1152.66 401.25 L 1161.98 409.41 L 1170.65 417.61 L 1178.68 425.85 L 1186.10 434.12 L 1192.94 442.44 L 1199.52 451.28 L 1205.39 460.09 L 1210.58 468.90 L 1215.12 477.72 L 1219.03 486.55 L 1222.19 495.10 L 1224.72 503.62 L 1226.63 512.14 L 1227.94 520.68 L 1228.66 529.26 L 1228.78 536.42 L 1228.45 543.59 L 1227.65 550.80 L 1226.39 558.05 L 1224.64 565.35 L 1222.41 572.74 L 1218.59 583.27 L 1214.16 594.15 L 1209.06 605.37 L 1203.28 616.97 L 1197.18 628.18 L 1190.47 639.55 L 1183.13 651.09 L 1175.13 662.81 L 1166.83 674.14 L 1157.96 685.46 L 1148.48 696.78 L 1138.38 708.08 L 1128.00 718.97 L 1117.07 729.69 L 1105.57 740.22 L 1093.49 750.58 L 1081.14 760.47 L 1068.26 770.02 L 1054.85 779.24 L 1040.90 788.12 L 1027.19 796.15 L 1013.03 803.74 L 998.39 810.88 L 983.27 817.58 L 971.06 822.47 L 958.56 827.00 L 945.77 831.17 L 932.67 834.97 L 919.25 838.40 L 905.86 841.34 L 892.17 843.84 L 878.18 845.89 L 863.88 847.48 L 849.24 848.62 L 834.77 849.23 L 819.98 849.31 L 804.88 848.85 L 789.43 847.84 L 773.63 846.27 L 760.68 844.48 L 748.11 842.31 L 735.93 839.77 L 724.10 836.86 L 712.62 833.59 L 701.48 829.97 L 688.07 825.03 L 675.15 819.67 L 662.68 813.87 L 650.65 807.66 L 639.05 801.02 L 627.63 793.85 L 616.63 786.36 L 606.05 778.53 L 595.86 770.37 L 586.06 761.87 L 576.52 752.97 L 567.37 743.84 L 558.61 734.47 L 550.22 724.86 L 542.20 715.00 L 533.66 703.76 L 525.57 692.34 L 517.93 680.75 L 510.74 668.98 L 503.89 656.95 L 497.50 644.87 L 491.54 632.74 L 486.01 620.54 L 480.82 608.14 L 476.07 595.81 L 471.74 583.57 L 467.84 571.39 L 464.25 559.02 L 461.09 546.88 L 458.35 534.96 L 456.01 523.24 L 453.99 511.33 L 452.39 499.80 L 451.17 488.62 L 450.34 477.79 L 449.86 466.77 L 449.76 456.28 L 450.02 446.28 L 450.63 436.76 L 451.75 427.45 L 453.47 418.48 L 455.76 409.81 L 458.63 401.43 L 462.08 393.30 L 466.08 385.42 L 470.61 377.79 L 475.67 370.39 L 481.27 363.21 L 487.45 356.24 L 494.40 349.28 L 501.91 342.55 L 510.00 336.07 L 518.68 329.83 L 528.01 323.84 L 537.40 318.39 L 547.31 313.19 L 557.74 308.24 L 568.72 303.56 L 580.28 299.14 Z" fill="#f4f4f4" fill-rule="evenodd" group-id="1,2,4,5" id="椭圆形备份-4" node-id="11" stroke="#555555" stroke-linecap="butt" stroke-width="6.118513" target-height="576.9066" target-width="779.02563" target-x="449.75546" target-y="272.4026"></path><g node-id="48"><path d="M 495.81 333.59 L 503.12 327.78 L 511.00 322.13 L 519.47 316.66 L 528.58 311.37 L 538.35 306.25 L 548.04 301.67 L 558.27 297.29 L 569.05 293.13 L 580.41 289.19 L 592.36 285.48 L 606.77 281.55 L 621.89 278.00 L 637.74 274.85 L 654.35 272.10 L 670.83 269.90 L 687.90 268.14 L 705.57 266.83 L 723.87 265.99 L 742.00 265.66 L 760.59 265.82 L 779.66 266.49 L 799.21 267.68 L 818.57 269.35 L 838.26 271.56 L 858.29 274.33 L 878.66 277.65 L 898.94 281.51 L 918.71 285.77 L 937.96 290.43 L 956.73 295.49 L 975.51 301.07 L 993.65 306.98 L 1011.18 313.19 L 1028.10 319.71 L 1045.01 326.77 L 1061.17 334.05 L 1076.61 341.55 L 1091.34 349.26 L 1106.02 357.53 L 1119.83 365.93 L 1132.82 374.44 L 1145.02 383.07 L 1154.99 390.65 L 1164.32 398.24 L 1173.03 405.84 L 1181.14 413.46 L 1188.69 421.09 L 1196.12 429.24 L 1202.87 437.33 L 1208.96 445.38 L 1214.44 453.38 L 1219.32 461.34 L 1223.77 469.57 L 1227.56 477.70 L 1230.73 485.76 L 1233.30 493.77 L 1235.29 501.73 L 1236.73 509.90 L 1237.54 518.01 L 1237.71 526.06 L 1237.27 534.10 L 1236.19 542.13 L 1234.46 550.04 L 1232.14 557.75 L 1229.22 565.26 L 1225.70 572.60 L 1221.55 579.78 L 1216.95 586.58 L 1211.80 593.22 L 1206.07 599.71 L 1199.73 606.06 L 1192.75 612.26 L 1185.44 618.08 L 1177.56 623.72 L 1169.08 629.19 L 1159.98 634.48 L 1150.21 639.60 L 1140.51 644.18 L 1130.29 648.56 L 1119.51 652.72 L 1108.15 656.66 L 1096.19 660.37 L 1081.78 664.30 L 1066.67 667.85 L 1050.82 671.00 L 1034.20 673.75 L 1017.73 675.95 L 1000.66 677.71 L 982.99 679.02 L 964.69 679.86 L 946.55 680.19 L 927.96 680.03 L 908.90 679.36 L 889.35 678.17 L 869.99 676.50 L 850.30 674.29 L 830.27 671.52 L 809.89 668.20 L 789.61 664.35 L 769.85 660.08 L 750.59 655.42 L 731.83 650.36 L 713.05 644.78 L 694.91 638.87 L 677.38 632.66 L 660.46 626.14 L 643.54 619.08 L 627.38 611.80 L 611.95 604.30 L 597.22 596.59 L 582.54 588.32 L 568.73 579.92 L 555.74 571.41 L 543.54 562.78 L 533.57 555.20 L 524.24 547.61 L 515.53 540.01 L 507.42 532.39 L 499.87 524.76 L 492.44 516.61 L 485.69 508.52 L 479.59 500.47 L 474.12 492.47 L 469.23 484.51 L 464.79 476.28 L 461.00 468.15 L 457.83 460.09 L 455.26 452.09 L 453.27 444.12 L 451.82 435.95 L 451.02 427.85 L 450.84 419.79 L 451.29 411.76 L 452.37 403.72 L 454.10 395.81 L 456.42 388.11 L 459.34 380.59 L 462.86 373.25 L 467.01 366.07 L 471.60 359.27 L 476.75 352.63 L 482.48 346.14 L 488.82 339.79 L 495.81 333.59 Z" fill="#ffffff" fill-rule="evenodd" group-id="1,2,4,5,6" id="12" node-id="13" stroke="#555555" stroke-linecap="butt" stroke-width="6.118513" target-height="414.52603" target-width="786.8716" target-x="450.84314" target-y="265.66263"></path><path d="M 755.34 656.17 L 815.99 470.92 L 817.37 467.37 L 819.05 464.09 L 821.04 461.05 L 823.33 458.23 L 825.91 455.65 L 828.69 453.37 L 831.69 451.40 L 834.92 449.71 L 838.29 448.36 L 841.79 447.37 L 845.43 446.74 L 849.22 446.48 L 852.27 446.66 L 855.13 447.20 L 857.82 448.08 L 860.37 449.33 L 863.48 451.47 L 866.14 454.05 L 868.37 457.11 L 869.68 459.62 L 870.64 462.29 L 871.26 465.13 L 871.52 468.17 L 871.35 471.27 L 845.50 672.71 L 845.50 672.71 L 827.80 670.79 L 813.46 668.79 L 802.02 666.76 L 783.46 662.77 L 755.34 656.17 Z" fill="#f4f4f4" fill-rule="evenodd" group-id="1,2,4,5,6" node-id="41" stroke="#555555" stroke-linecap="butt" stroke-width="6.118513" target-height="226.2312" target-width="116.18475" target-x="755.3382" target-y="446.4787"></path></g><path d="M 1045.61 270.79 L 1045.33 278.57 L 1044.54 286.19 L 1043.25 293.65 L 1041.46 300.99 L 1039.17 308.20 L 1036.42 315.25 L 1033.23 322.13 L 1029.61 328.84 L 1025.53 335.40 L 1020.99 341.82 L 1016.13 347.92 L 1010.90 353.81 L 1005.27 359.51 L 999.24 365.00 L 992.79 370.30 L 984.46 376.41 L 975.62 382.11 L 966.24 387.41 L 956.30 392.31 L 946.17 396.61 L 935.64 400.41 L 924.66 403.71 L 913.22 406.49 L 904.06 408.27 L 894.69 409.66 L 885.12 410.67 L 875.32 411.30 L 865.29 411.52 L 855.25 411.30 L 845.45 410.67 L 835.88 409.66 L 826.51 408.27 L 817.35 406.49 L 805.91 403.71 L 794.93 400.41 L 784.40 396.61 L 774.27 392.31 L 764.33 387.41 L 754.96 382.11 L 746.11 376.41 L 737.78 370.30 L 731.33 365.00 L 725.30 359.51 L 719.67 353.81 L 714.44 347.92 L 709.58 341.82 L 705.04 335.40 L 700.96 328.84 L 697.34 322.13 L 694.15 315.25 L 691.40 308.20 L 689.11 300.99 L 687.32 293.65 L 686.03 286.19 L 685.24 278.57 L 684.96 270.79 L 685.24 263.00 L 686.03 255.39 L 687.32 247.92 L 689.11 240.59 L 691.40 233.38 L 694.15 226.33 L 697.34 219.45 L 700.96 212.74 L 705.04 206.18 L 709.58 199.76 L 714.44 193.66 L 719.67 187.76 L 725.30 182.07 L 731.33 176.57 L 737.78 171.28 L 746.11 165.17 L 754.96 159.46 L 764.33 154.16 L 774.27 149.27 L 784.40 144.97 L 794.93 141.17 L 805.91 137.87 L 817.35 135.08 L 826.51 133.31 L 835.88 131.91 L 845.45 130.90 L 855.25 130.28 L 865.29 130.06 L 875.32 130.28 L 885.12 130.90 L 894.69 131.91 L 904.06 133.31 L 913.22 135.08 L 924.66 137.87 L 935.64 141.17 L 946.17 144.97 L 956.30 149.27 L 966.24 154.16 L 975.62 159.46 L 984.46 165.17 L 992.79 171.28 L 999.24 176.57 L 1005.27 182.07 L 1010.90 187.76 L 1016.13 193.66 L 1020.99 199.76 L 1025.53 206.18 L 1029.61 212.74 L 1033.23 219.45 L 1036.42 226.33 L 1039.17 233.38 L 1041.46 240.59 L 1043.25 247.92 L 1044.54 255.39 L 1045.33 263.00 L 1045.61 270.79 Z" fill="#ffffff" fill-rule="evenodd" group-id="1,2,4,5" id="椭圆形" node-id="15" stroke-linecap="butt" stroke-width="1" target-height="281.46472" target-width="360.6493" target-x="684.9607" target-y="130.0555"></path><path d="M 863.30 86.69 L 851.49 86.51 L 839.78 86.78 L 828.16 87.50 L 816.63 88.66 L 805.18 90.27 L 793.78 92.32 L 782.51 94.80 L 771.37 97.70 L 760.35 101.03 L 749.44 104.79 L 738.69 108.97 L 728.11 113.55 L 717.69 118.54 L 707.44 123.94 L 697.33 129.77 L 687.48 135.96 L 677.84 142.54 L 668.41 149.52 L 659.17 156.91 L 650.13 164.71 L 639.77 174.00 L 649.15 184.28 L 679.76 217.87 L 688.57 227.53 L 698.32 218.93 L 706.98 211.62 L 715.87 204.80 L 724.99 198.45 L 734.36 192.57 L 744.02 187.13 L 753.85 182.17 L 763.87 177.71 L 774.08 173.73 L 784.47 170.23 L 795.00 167.24 L 805.66 164.75 L 816.47 162.77 L 827.35 161.30 L 838.32 160.36 L 849.38 159.95 L 860.55 160.07 L 871.69 160.73 L 882.70 161.91 L 893.58 163.61 L 904.34 165.83 L 914.99 168.57 L 925.46 171.79 L 935.76 175.51 L 945.89 179.73 L 955.80 184.41 L 965.49 189.57 L 974.95 195.19 L 984.19 201.30 L 993.13 207.82 L 1001.78 214.79 L 1010.16 222.21 L 1018.27 230.10 L 1027.40 239.36 L 1036.86 230.34 L 1069.74 198.97 L 1079.81 189.37 L 1070.12 179.37 L 1061.67 170.96 L 1053.00 162.95 L 1044.09 155.33 L 1034.95 148.09 L 1025.57 141.23 L 1015.91 134.72 L 1006.07 128.61 L 996.04 122.91 L 985.82 117.60 L 975.39 112.69 L 964.78 108.17 L 954.03 104.08 L 943.14 100.41 L 932.08 97.15 L 920.87 94.31 L 909.58 91.91 L 898.18 89.95 L 886.67 88.42 L 875.05 87.34 L 863.30 86.69 Z" fill="#3681fd" fill-rule="nonzero" group-id="1,2,4,5" id="路径" node-id="16" stroke="#555555" stroke-linecap="butt" stroke-width="6.118513" target-height="152.8503" target-width="440.0376" target-x="639.7683" target-y="86.513885"></path><path d="M 994.01 250.23 L 986.54 243.05 L 978.85 236.33 L 970.91 230.07 L 962.72 224.25 L 954.28 218.87 L 945.55 213.90 L 936.65 209.40 L 927.57 205.38 L 918.31 201.82 L 908.85 198.73 L 899.25 196.11 L 889.55 194.00 L 879.72 192.39 L 869.77 191.27 L 859.67 190.65 L 851.08 190.35 L 850.98 190.54 L 841.44 190.85 L 832.01 191.60 L 822.68 192.81 L 813.43 194.46 L 804.25 196.56 L 795.18 199.10 L 786.27 202.06 L 777.50 205.44 L 768.87 209.25 L 760.37 213.49 L 752.10 218.12 L 744.04 223.15 L 736.18 228.58 L 728.51 234.42 L 721.03 240.70 L 710.55 249.91 L 719.95 260.32 L 750.39 294.08 L 758.85 303.46 L 768.42 295.32 L 774.90 290.12 L 781.57 285.38 L 788.43 281.11 L 795.49 277.28 L 802.79 273.88 L 810.20 270.96 L 817.73 268.52 L 825.40 266.54 L 833.17 265.05 L 841.00 264.07 L 848.88 263.58 L 856.83 263.60 L 864.82 264.14 L 872.69 265.17 L 880.45 266.71 L 888.13 268.74 L 895.66 271.24 L 903.02 274.20 L 910.21 277.63 L 917.26 281.54 L 924.04 285.85 L 930.58 290.59 L 936.90 295.78 L 943.00 301.42 L 951.98 310.20 L 961.08 301.44 L 993.80 269.89 L 1003.90 260.16 L 994.01 250.22 L 994.01 250.23 Z" fill="#3681fd" fill-rule="nonzero" group-id="1,2,4,5" id="路径" node-id="17" stroke="#555555" stroke-linecap="butt" stroke-width="6.118513" target-height="119.851685" target-width="293.3584" target-x="710.5465" target-y="190.34915"></path><path d="M 852.04 404.67 L 862.02 395.29 L 916.90 343.79 L 927.92 333.43 L 916.61 323.31 L 910.87 318.89 L 904.83 314.79 L 900.65 312.29 L 896.17 309.97 L 891.41 307.83 L 886.52 305.98 L 881.17 304.36 L 875.32 302.96 L 869.41 301.92 L 862.85 301.16 L 855.58 300.71 L 848.32 300.67 L 841.80 301.02 L 835.93 301.70 L 830.12 302.76 L 824.76 304.07 L 819.82 305.63 L 812.65 308.46 L 805.98 311.68 L 799.51 315.23 L 793.12 319.00 L 781.24 328.31 L 791.50 339.41 L 842.65 394.63 L 852.04 404.67 Z" fill="#3681fd" fill-rule="nonzero" group-id="1,2,4,5" id="路径" node-id="18" stroke="#555555" stroke-linecap="butt" stroke-width="6.118513" target-height="103.99841" target-width="146.67914" target-x="781.23785" target-y="300.67307"></path><path d="M 546.99 882.63 L 764.90 912.79 L 768.26 913.02 L 771.48 912.82 L 774.60 912.20 L 777.61 911.17 L 780.41 909.80 L 783.02 908.07 L 785.40 906.02 L 787.48 903.70 L 789.28 901.08 L 790.73 898.25 L 791.80 895.20 L 792.49 891.91 L 792.73 888.55 L 792.73 809.37 L 792.51 804.88 L 791.92 800.53 L 790.95 796.30 L 789.60 792.17 L 787.89 788.17 L 785.86 784.37 L 783.50 780.78 L 780.81 777.36 L 777.83 774.20 L 774.57 771.32 L 771.03 768.72 L 767.19 766.39 L 671.93 714.50 L 667.66 712.44 L 663.36 710.84 L 659.02 709.66 L 654.61 708.91 L 650.13 708.56 L 645.71 708.61 L 641.34 709.06 L 637.00 709.91 L 632.74 711.15 L 628.65 712.75 L 624.70 714.72 L 620.88 717.08 L 617.30 719.76 L 613.97 722.79 L 610.89 726.19 L 608.03 729.97 L 530.11 844.63 L 528.41 847.54 L 527.16 850.52 L 526.34 853.59 L 525.93 856.74 L 525.92 859.86 L 526.31 862.97 L 527.09 866.01 L 528.25 868.90 L 529.79 871.68 L 531.68 874.23 L 533.94 876.54 L 536.59 878.63 L 539.86 880.50 L 543.31 881.83 L 546.99 882.63 Z" fill="#3681fd" fill-rule="evenodd" group-id="1,2,4,5" id="路径-8" node-id="19" stroke="#555555" stroke-linecap="butt" stroke-width="6.118513" target-height="204.46191" target-width="266.8095" target-x="525.9157" target-y="708.562"></path><path d="M 679.28 849.68 L 682.05 849.44 L 684.65 848.82 L 687.11 847.80 L 689.46 846.38 L 692.25 844.01 L 694.66 841.13 L 696.69 837.69 L 698.18 833.96 L 699.10 829.91 L 699.45 825.46 L 699.18 822.16 L 698.48 819.15 L 697.36 816.41 L 695.84 813.84 L 694.03 811.56 L 691.92 809.53 L 689.57 807.77 L 687.06 806.32 L 684.39 805.16 L 681.61 804.31 L 678.83 803.80 L 676.03 803.62 L 673.26 803.84 L 670.73 804.42 L 668.40 805.35 L 666.26 806.62 L 663.72 808.80 L 661.56 811.48 L 659.78 814.74 L 658.52 818.26 L 657.72 822.20 L 657.43 826.65 L 657.66 829.98 L 658.28 833.04 L 659.28 835.90 L 660.64 838.60 L 662.27 841.02 L 664.18 843.18 L 666.34 845.10 L 668.66 846.69 L 671.16 847.97 L 673.80 848.91 L 676.50 849.48 L 679.28 849.68 Z" fill="#ffffff" fill-rule="evenodd" group-id="1,2,4,5" id="椭圆形" node-id="20" stroke-linecap="butt" stroke-width="1" target-height="46.05786" target-width="42.018555" target-x="657.43066" target-y="803.625"></path><path d="M 677.29 801.05 L 674.41 801.07 L 671.45 801.38 L 668.60 802.04 L 665.84 803.04 L 663.22 804.37 L 660.78 806.00 L 658.51 807.94 L 656.27 810.44 L 654.45 813.09 L 653.03 815.92 L 651.99 818.91 L 651.34 821.95 L 651.09 825.06 L 651.24 828.18 L 651.78 831.23 L 652.72 834.25 L 654.05 837.12 L 655.77 839.82 L 657.93 842.38 L 659.17 843.54 L 661.55 845.28 L 664.22 846.74 L 667.22 847.93 L 670.33 848.81 L 673.55 849.42 L 676.87 849.76 L 681.84 849.76 L 686.52 849.18 L 689.56 848.45 L 692.22 847.49 L 694.56 846.33 L 697.68 844.11 L 700.14 841.66 L 702.00 838.95 L 703.37 835.96 L 704.23 832.84 L 704.59 829.56 L 704.47 826.24 L 703.91 822.94 L 702.88 819.61 L 701.45 816.43 L 699.63 813.42 L 697.40 810.57 L 694.84 808.01 L 691.95 805.79 L 688.69 803.90 L 685.22 802.46 L 681.43 801.51 L 677.29 801.05 Z M 690.79 839.89 L 688.18 841.05 L 684.84 841.90 L 681.27 842.31 L 677.44 842.31 L 673.63 841.88 L 670.06 841.02 L 667.78 840.18 L 665.83 839.15 L 664.15 837.96 L 663.18 837.04 L 661.28 834.67 L 659.90 832.14 L 659.00 829.42 L 658.58 826.57 L 658.64 823.74 L 659.18 820.89 L 660.20 818.17 L 661.69 815.65 L 663.71 813.30 L 666.11 811.36 L 668.78 809.91 L 671.68 808.95 L 674.73 808.53 L 677.00 808.52 L 680.59 808.96 L 683.80 809.90 L 686.69 811.30 L 689.33 813.14 L 691.59 815.24 L 693.49 817.64 L 695.04 820.27 L 696.14 822.96 L 696.83 825.72 L 697.08 828.54 L 696.84 831.20 L 696.12 833.74 L 694.92 836.06 L 693.17 838.10 L 690.79 839.89 Z" fill="#555555" fill-rule="nonzero" group-id="1,2,4,5" id="路径-3备份-2" node-id="21" stroke-linecap="butt" stroke-width="1" target-height="48.708557" target-width="53.497803" target-x="651.0939" target-y="801.0493"></path><path d="M 612.22 357.37 L 613.45 356.43 L 614.76 355.84 L 616.19 355.59 L 617.63 355.67 L 618.99 356.09 L 620.30 356.86 L 620.87 357.37 L 645.91 382.42 L 646.92 383.76 L 647.50 385.19 L 647.70 386.75 L 647.50 388.31 L 646.92 389.74 L 645.91 391.08 L 644.68 392.02 L 643.37 392.61 L 641.95 392.86 L 640.50 392.77 L 639.14 392.36 L 637.84 391.59 L 637.26 391.08 L 612.22 366.03 L 611.22 364.68 L 610.63 363.26 L 610.43 361.70 L 610.63 360.14 L 611.22 358.71 L 612.22 357.37 Z M 598.59 395.62 L 599.73 394.57 L 600.98 393.87 L 602.38 393.50 L 603.83 393.46 L 605.22 393.75 L 606.59 394.41 L 607.21 394.86 L 634.33 417.64 L 635.45 418.88 L 636.16 420.26 L 636.49 421.79 L 636.43 423.36 L 635.97 424.83 L 635.08 426.26 L 633.94 427.30 L 632.69 428.00 L 631.29 428.38 L 629.84 428.42 L 628.45 428.12 L 627.09 427.47 L 626.47 427.01 L 599.34 404.24 L 598.22 402.99 L 597.51 401.62 L 597.18 400.08 L 597.24 398.52 L 597.70 397.04 L 598.59 395.62 Z" fill="#e73443" fill-rule="nonzero" group-id="1,2,4,5" id="路径-14" node-id="22" stroke-linecap="butt" stroke-width="1" target-height="72.82834" target-width="50.51831" target-x="597.18225" target-y="355.59055"></path><path d="M 1100.05 505.58 L 1100.28 507.11 L 1100.16 508.54 L 1099.69 509.91 L 1098.91 511.13 L 1097.89 512.12 L 1096.58 512.89 L 1095.86 513.15 L 1061.82 522.91 L 1060.16 523.14 L 1058.63 522.96 L 1057.17 522.38 L 1055.90 521.45 L 1054.94 520.25 L 1054.26 518.72 L 1054.03 517.18 L 1054.15 515.75 L 1054.62 514.38 L 1055.40 513.16 L 1056.42 512.17 L 1057.73 511.40 L 1058.45 511.15 L 1092.49 501.38 L 1094.15 501.15 L 1095.68 501.33 L 1097.14 501.91 L 1098.40 502.84 L 1099.37 504.05 L 1100.05 505.58 Z" fill="#e73443" fill-opacity="0.5" fill-rule="nonzero" group-id="1,2,4,5,7" id="路径备份-9" node-id="23" stroke-linecap="butt" stroke-opacity="0.5" stroke-width="1" target-height="21.992615" target-width="46.25476" target-x="1054.0261" target-y="501.15033"></path><path d="M 1073.23 475.10 L 1073.59 476.61 L 1073.59 478.05 L 1073.24 479.45 L 1072.58 480.74 L 1071.64 481.81 L 1070.41 482.69 L 1069.71 483.01 L 1036.66 495.71 L 1035.02 496.08 L 1033.48 496.04 L 1031.98 495.58 L 1030.63 494.77 L 1029.57 493.65 L 1028.75 492.19 L 1028.39 490.68 L 1028.39 489.24 L 1028.74 487.84 L 1029.41 486.55 L 1030.34 485.48 L 1031.57 484.60 L 1032.27 484.28 L 1065.33 471.58 L 1066.96 471.21 L 1068.50 471.25 L 1070.01 471.71 L 1071.35 472.52 L 1072.41 473.64 L 1073.23 475.10 Z" fill="#e73443" fill-opacity="0.5" fill-rule="nonzero" group-id="1,2,4,5,8" id="路径备份-10" node-id="24" stroke-linecap="butt" stroke-opacity="0.5" stroke-width="1" target-height="24.87262" target-width="45.203125" target-x="1028.3899" target-y="471.2083"></path></g></g></g><path d="M 850.87 261.38 L 829.95 272.26 L 832.68 118.92 L 896.93 152.80 L 882.94 201.85 L 913.53 198.94 L 838.73 332.01 Z" fill="#ffffff" fill-rule="nonzero" group-id="1,3" id="路径" node-id="27" stroke="#555555" stroke-linecap="butt" stroke-width="6" target-height="213.09491" target-width="83.5827" target-x="829.94574" target-y="118.91679"></path></g></svg>